<?xml version="1.0" encoding="iso-8859-1"?>
<!-- Generator: Adobe Illustrator 16.0.0, SVG Export Plug-In . SVG Version: 6.00 Build 0)  -->
<!DOCTYPE svg PUBLIC "-//W3C//DTD SVG 1.1//EN" "http://www.w3.org/Graphics/SVG/1.1/DTD/svg11.dtd">
<svg version="1.1" id="Capa_1" xmlns="http://www.w3.org/2000/svg" xmlns:xlink="http://www.w3.org/1999/xlink" x="0px" y="0px"
	 width="760.185px" height="760.185px" viewBox="0 0 760.185 760.185" style="enable-background:new 0 0 760.185 760.185;"
	 xml:space="preserve">
<g>
	<g>
		<g>
			<g>
				<path d="M313.413,483.184h-89.175v-89.17h89.175V483.184z M244.033,463.389h49.585v-49.58h-49.585V463.389z"/>
			</g>
			<g>
				<path d="M535.946,483.184h-89.176v-89.17h89.176V483.184z M466.566,463.389h49.586v-49.58h-49.586V463.389z"/>
			</g>
		</g>
		<g>
			<path d="M321.345,703.004H97.249V397.559l-69.024-0.121l-0.276,0.002c-12.298,0-22.38-6.609-26.312-17.25
				c-3.877-10.493-0.713-22.481,7.874-29.831l0.122-0.104L344.377,72.97c30.049-25.127,52.335-16.613,71.675,0.242L750.29,350.294
				c8.658,6.763,12.069,18.421,8.487,29.079c-3.745,11.145-14.055,18.121-26.901,18.204h-68.992v305.426H438.774l0.351-10.236
				c0.016-0.446,0.055-0.838,0.092-1.136V590.247c0-9.96-8.1-18.062-18.059-18.062h-82.192c-9.957,0-18.058,8.104-18.058,18.062
				V691.64c0.038,0.307,0.075,0.692,0.091,1.132L321.345,703.004z M117.044,683.209h184.068v-92.963
				c0-20.875,16.98-37.857,37.854-37.857h82.192c20.872,0,37.854,16.982,37.854,37.857v92.962H643.09V377.781h88.723
				c9.084,0.249,9.849-8.528,6.259-11.916L403.4,88.434c-16.596-13.821-25.646-18.264-46.812,0.117L22.33,365.443
				c-4.683,4.264-1.871,12.484,5.619,12.202l89.095,0.155V683.209z"/>
		</g>
	</g>
</g>
<g>
</g>
<g>
</g>
<g>
</g>
<g>
</g>
<g>
</g>
<g>
</g>
<g>
</g>
<g>
</g>
<g>
</g>
<g>
</g>
<g>
</g>
<g>
</g>
<g>
</g>
<g>
</g>
<g>
</g>
</svg>
